# xmcd CD database file
#
# Track frame offsets:
#	150
#	11990
#	25684
#	38280
#	51734
#	61952
#	75485
#	86430
#	98575
#	109673
#	122568
#	135207
#
# Disc length: 1971 seconds
#
# Revision: 0
# Processed by: cddbd v1.5.2PL0 Copyright (c) Steve Scherf et al.
# Submitted via: CDex 1.51
#
DISCID=8607b10c
DTITLE=Various Artist - The very best of Nashville - CD 1
DYEAR=1900
DGENRE=Country
TTITLE0=Freddy Fender - Before The Next Teardrop
TTITLE1=Ray Price - Heartache By The Number
TTITLE2=Freddy Fender - Wasted Day Wasted Night
TTITLE3=Lynn Anderson - Rose Garden
TTITLE4=Hank Locking - Please Help Me I'm Falling
TTITLE5=Leroy Van Dyke - The Auctionner
TTITLE6=Leroy Van Dyke - Walk On By
TTITLE7=Johnny Cash - Ring Of Fire
TTITLE8=Willie Nelson - On The Road Again
TTITLE9=George Jones - White Lightning
TTITLE10=Hank William - Your Cheating Heart
TTITLE11=Buck Owen - Under Your Spell Again
EXTD=
EXTT0=
EXTT1=
EXTT2=
EXTT3=
EXTT4=
EXTT5=
EXTT6=
EXTT7=
EXTT8=
EXTT9=
EXTT10=
EXTT11=
PLAYORDER=
